<svg width="1920" height="1080" viewBox="0 0 1920 1080" fill="none" xmlns="http://www.w3.org/2000/svg">
<rect width="1920" height="1080" fill="#F3F2F0"/>
<path d="M535.341 475.65V498.24H497.172V603.225H470.342V498.24H432V475.65H535.341Z" fill="#141414"/>
<path d="M627.177 547.833V603.225H601.991V545.842C601.991 540.765 601.126 536.668 599.395 533.552C597.144 529.167 592.875 526.974 586.585 526.974C580.065 526.974 575.103 529.167 571.699 533.552C568.352 537.88 566.679 544.082 566.679 552.16V603.225H542.099V476.083H566.679V521.175C570.256 515.694 574.382 511.886 579.055 509.751C583.787 507.558 588.749 506.462 593.942 506.462C599.77 506.462 605.049 507.472 609.781 509.491C614.57 511.511 618.493 514.598 621.551 518.752C624.148 522.272 625.735 525.907 626.312 529.657C626.889 533.35 627.177 539.409 627.177 547.833Z" fill="#141414"/>
<path d="M668.555 508.885V603.225H643.542V508.885H668.555ZM668.555 474.871V497.634H643.542V474.871H668.555Z" fill="#141414"/>
<path d="M732.869 531.648C722.944 531.648 716.28 534.879 712.875 541.342C710.971 544.977 710.019 550.574 710.019 558.132V603.225H685.18V508.885H708.721V525.33C712.529 519.04 715.847 514.742 718.674 512.434C723.29 508.568 729.291 506.635 736.677 506.635C737.138 506.635 737.513 506.664 737.802 506.722C738.148 506.722 738.869 506.75 739.966 506.808V532.081C738.408 531.908 737.023 531.792 735.811 531.734C734.6 531.677 733.619 531.648 732.869 531.648Z" fill="#141414"/>
<path d="M833.273 475.823V603.225H809.299V590.156C805.779 595.753 801.769 599.82 797.269 602.359C792.768 604.898 787.171 606.167 780.478 606.167C769.457 606.167 760.168 601.725 752.609 592.839C745.108 583.895 741.357 572.442 741.357 558.478C741.357 542.38 745.05 529.715 752.436 520.483C759.879 511.251 769.803 506.635 782.209 506.635C787.921 506.635 792.999 507.904 797.442 510.443C801.885 512.924 805.491 516.386 808.261 520.829V475.823H833.273ZM766.803 556.661C766.803 565.374 768.534 572.326 771.996 577.519C775.4 582.77 780.593 585.395 787.575 585.395C794.557 585.395 799.865 582.799 803.5 577.606C807.135 572.413 808.953 565.691 808.953 557.44C808.953 545.9 806.039 537.649 800.211 532.687C796.634 529.686 792.48 528.186 787.748 528.186C780.536 528.186 775.227 530.927 771.823 536.408C768.476 541.832 766.803 548.583 766.803 556.661Z" fill="#141414"/>
<path d="M982.932 593.704C973.412 602.417 961.237 606.773 946.408 606.773C928.06 606.773 913.635 600.888 903.133 589.117C892.632 577.289 887.381 561.075 887.381 540.476C887.381 518.204 893.353 501.038 905.297 488.979C915.683 478.477 928.896 473.227 944.937 473.227C966.401 473.227 982.096 480.266 992.02 494.345C997.502 502.25 1000.44 510.184 1000.85 518.146H974.191C972.46 512.03 970.238 507.414 967.526 504.298C962.68 498.759 955.496 495.989 945.975 495.989C936.282 495.989 928.637 499.913 923.04 507.76C917.443 515.55 914.644 526.599 914.644 540.909C914.644 555.218 917.587 565.951 923.472 573.105C929.415 580.202 936.945 583.751 946.062 583.751C955.409 583.751 962.535 580.693 967.44 574.577C970.152 571.288 972.402 566.354 974.191 559.777H1000.59C998.28 573.682 992.395 584.992 982.932 593.704Z" fill="#141414"/>
<path d="M1072.43 589.896C1072.2 590.185 1071.62 591.05 1070.7 592.493C1069.78 593.935 1068.68 595.204 1067.41 596.301C1063.55 599.763 1059.8 602.128 1056.16 603.398C1052.58 604.667 1048.37 605.302 1043.52 605.302C1029.56 605.302 1020.16 600.282 1015.31 590.242C1012.6 584.703 1011.24 576.539 1011.24 565.749V508.885H1036.51V565.749C1036.51 571.115 1037.15 575.154 1038.42 577.866C1040.67 582.655 1045.08 585.049 1051.66 585.049C1060.08 585.049 1065.85 581.645 1068.97 574.836C1070.59 571.144 1071.39 566.268 1071.39 560.209V508.885H1096.41V603.225H1072.43V589.896Z" fill="#141414"/>
<path d="M1113.72 475.65H1138.39V603.225H1113.72V475.65Z" fill="#141414"/>
<path d="M1198.64 585.655V604.09L1186.95 604.523C1175.3 604.927 1167.33 602.907 1163.06 598.465C1160.29 595.637 1158.91 591.281 1158.91 585.395V527.32H1145.75V509.751H1158.91V483.44H1183.32V509.751H1198.64V527.32H1183.32V577.173C1183.32 581.039 1183.81 583.463 1184.79 584.443C1185.77 585.367 1188.77 585.828 1193.79 585.828C1194.54 585.828 1195.32 585.828 1196.13 585.828C1196.99 585.771 1197.83 585.713 1198.64 585.655Z" fill="#141414"/>
<path d="M1267.88 589.896C1267.65 590.185 1267.07 591.05 1266.15 592.493C1265.23 593.935 1264.13 595.204 1262.86 596.301C1259 599.763 1255.25 602.128 1251.61 603.398C1248.03 604.667 1243.82 605.302 1238.97 605.302C1225.01 605.302 1215.61 600.282 1210.76 590.242C1208.05 584.703 1206.69 576.539 1206.69 565.749V508.885H1231.96V565.749C1231.96 571.115 1232.6 575.154 1233.87 577.866C1236.12 582.655 1240.53 585.049 1247.11 585.049C1255.53 585.049 1261.3 581.645 1264.42 574.836C1266.04 571.144 1266.84 566.268 1266.84 560.209V508.885H1291.86V603.225H1267.88V589.896Z" fill="#141414"/>
<path d="M1356.08 531.648C1346.16 531.648 1339.5 534.879 1336.09 541.342C1334.19 544.977 1333.23 550.574 1333.23 558.132V603.225H1308.39V508.885H1331.94V525.33C1335.74 519.04 1339.06 514.742 1341.89 512.434C1346.51 508.568 1352.51 506.635 1359.89 506.635C1360.35 506.635 1360.73 506.664 1361.02 506.722C1361.36 506.722 1362.08 506.75 1363.18 506.808V532.081C1361.62 531.908 1360.24 531.792 1359.03 531.734C1357.81 531.677 1356.83 531.648 1356.08 531.648Z" fill="#141414"/>
<path d="M1451.38 575.529C1450.75 581.126 1447.83 586.809 1442.64 592.579C1434.56 601.753 1423.25 606.341 1408.71 606.341C1396.71 606.341 1386.12 602.475 1376.95 594.743C1367.78 587.011 1363.19 574.432 1363.19 557.007C1363.19 540.678 1367.31 528.157 1375.56 519.444C1383.87 510.732 1394.63 506.375 1407.85 506.375C1415.69 506.375 1422.76 507.847 1429.05 510.789C1435.34 513.732 1440.53 518.377 1444.63 524.724C1448.32 530.321 1450.72 536.812 1451.82 544.198C1452.45 548.525 1452.71 554.757 1452.59 562.892H1388.03C1388.37 572.355 1391.35 578.991 1396.94 582.799C1400.35 585.165 1404.44 586.348 1409.23 586.348C1414.31 586.348 1418.44 584.905 1421.61 582.02C1423.34 580.462 1424.87 578.298 1426.2 575.529H1451.38ZM1426.98 546.621C1426.57 540.101 1424.58 535.168 1421 531.821C1417.48 528.417 1413.1 526.715 1407.85 526.715C1402.14 526.715 1397.69 528.503 1394.52 532.081C1391.4 535.658 1389.44 540.505 1388.63 546.621H1426.98Z" fill="#141414"/>
<path d="M1461.78 577.433H1488V603.225H1461.78V577.433Z" fill="#141414"/>
</svg>
